<?xml version="1.0" encoding="utf-8"?>
<!--
  #%L
  ui
  %%
  Copyright (C) 2023 Montoni
  %%
  This program is free software: you can redistribute it and/or modify
  it under the terms of the GNU Affero General Public License as published by
  the Free Software Foundation, either version 3 of the License, or
  (at your option) any later version.
  
  This program is distributed in the hope that it will be useful,
  but WITHOUT ANY WARRANTY; without even the implied warranty of
  MERCHANTABILITY or FITNESS FOR A PARTICULAR PURPOSE.  See the
  GNU General Public License for more details.
  
  You should have received a copy of the GNU Affero General Public License
  along with this program.  If not, see <http://www.gnu.org/licenses/>.
  #L%
  -->

<!-- Uploaded to: SVG Repo, www.svgrepo.com, Generator: SVG Repo Mixer Tools -->
<svg width="800px" height="800px" viewBox="0 0 32 32" xmlns="http://www.w3.org/2000/svg"><title>folder_type_log</title><path d="M27.5,5.5H18.2L16.1,9.7H4.4V26.5H29.6V5.5Zm0,4.2H19.3l1.1-2.1h7.1Z" style="fill:#53c153"/><rect x="9.95" y="12.933" width="21" height="18.033" style="fill:#00bd02"/><rect x="10.731" y="13.714" width="19.439" height="16.472" style="fill:#fff"/><rect x="9.95" y="13.714" width="21" height="1.483" style="fill:#00bd02"/><rect x="16.846" y="16.837" width="6.376" height="0.781" style="fill:#00bd02"/><rect x="16.846" y="18.853" width="9.758" height="0.781" style="fill:#00bd02"/><rect x="16.846" y="20.935" width="8.288" height="0.781" style="fill:#00bd02"/><rect x="16.846" y="23.147" width="11.06" height="0.781" style="fill:#00bd02"/><rect x="16.846" y="25.424" width="7.677" height="0.781" style="fill:#00bd02"/><rect x="16.976" y="27.44" width="9.498" height="0.781" style="fill:#00bd02"/><rect x="12.292" y="16.837" width="3.383" height="0.781" style="fill:#00bd02"/><rect x="12.292" y="18.853" width="3.383" height="0.781" style="fill:#00bd02"/><rect x="12.292" y="18.853" width="3.383" height="0.781" style="fill:#00bd02"/><rect x="12.292" y="20.87" width="3.383" height="0.781" style="fill:#00bd02"/><rect x="12.292" y="22.887" width="3.383" height="0.781" style="fill:#00bd02"/><rect x="12.292" y="25.424" width="3.383" height="0.781" style="fill:#00bd02"/><rect x="12.292" y="27.44" width="3.383" height="0.781" style="fill:#00bd02"/></svg>
