<?xml version="1.0" encoding="iso-8859-1"?>
<!--
  #%L
  ui
  %%
  Copyright (C) 2023 Montoni
  %%
  This program is free software: you can redistribute it and/or modify
  it under the terms of the GNU Affero General Public License as published by
  the Free Software Foundation, either version 3 of the License, or
  (at your option) any later version.
  
  This program is distributed in the hope that it will be useful,
  but WITHOUT ANY WARRANTY; without even the implied warranty of
  MERCHANTABILITY or FITNESS FOR A PARTICULAR PURPOSE.  See the
  GNU General Public License for more details.
  
  You should have received a copy of the GNU Affero General Public License
  along with this program.  If not, see <http://www.gnu.org/licenses/>.
  #L%
  -->

<!-- Uploaded to: SVG Repo, www.svgrepo.com, Generator: SVG Repo Mixer Tools -->
<svg height="800px" width="800px" version="1.1" id="Layer_1" xmlns="http://www.w3.org/2000/svg" xmlns:xlink="http://www.w3.org/1999/xlink" 
	 viewBox="0 0 512.002 512.002" xml:space="preserve">
<circle style="fill:#386895;" cx="256.001" cy="256" r="256"/>
<path style="fill:#273B7A;" d="M512.001,256c0-2.043-0.029-4.081-0.078-6.111L408.229,146.804l-28.889,119.906l-39.441-39.441
	c0,0-234.451,137.912-236.175,137.912l146.749,146.749c1.839,0.04,3.681,0.071,5.529,0.071C397.385,512,512.001,397.384,512.001,256
	z"/>
<path style="fill:#FFFFFF;" d="M397.432,369.778H114.568c-8.292,0-15.012-6.722-15.012-15.012v-197.53
	c0-8.292,6.722-15.014,15.012-15.014h282.864c8.292,0,15.012,6.722,15.012,15.014v197.53
	C412.445,363.056,405.724,369.778,397.432,369.778z"/>
<path style="fill:#D0D1D3;" d="M397.432,142.222H256.001v227.556h141.431c8.292,0,15.012-6.722,15.012-15.012V157.234
	C412.445,148.944,405.724,142.222,397.432,142.222z"/>
<path style="fill:#477F3C;" d="M333.277,208.006c-7.452-7.452-19.534-7.452-26.986,0L145.797,368.5
	c-0.41,0.41-0.79,0.84-1.153,1.277h252.788c8.292,0,15.012-6.722,15.012-15.012v-67.589L333.277,208.006z"/>
<path style="fill:#2E5E24;" d="M333.277,208.006c-3.432-3.432-7.849-5.263-12.341-5.534v167.305h76.498
	c8.292,0,15.012-6.722,15.012-15.012v-67.589L333.277,208.006z"/>
<path style="fill:#8BC180;" d="M203.696,243.772c-7.452-7.452-19.534-7.452-26.986,0l-77.153,77.155v33.839
	c0,8.292,6.722,15.012,15.012,15.012h215.133L203.696,243.772z"/>
<path style="fill:#6CAF5F;" d="M203.696,243.772c-3.798-3.798-8.799-5.649-13.777-5.575v131.581h139.785L203.696,243.772z"/>
<circle style="fill:#EAA22F;" cx="206.87" cy="192.215" r="28.444"/>
</svg>
